<?xml version="1.0" standalone="no"?>
<!DOCTYPE svg PUBLIC "-//W3C//DTD SVG 20010904//EN"
 "http://www.w3.org/TR/2001/REC-SVG-20010904/DTD/svg10.dtd">
<svg version="1.0" xmlns="http://www.w3.org/2000/svg"
 width="700.000000pt" height="700.000000pt" viewBox="0 0 700.000000 700.000000"
 preserveAspectRatio="xMidYMid meet">
<metadata>
Created by potrace 1.11, written by Peter Selinger 2001-2013
</metadata>
<g transform="translate(0.000000,700.000000) scale(0.100000,-0.100000)"
fill="#000000" stroke="none">
<path d="M3433 6551 c-79 -73 -232 -176 -376 -251 -549 -287 -1242 -367 -1989
-228 -65 12 -120 19 -122 17 -8 -7 -25 -352 -31 -629 -7 -281 7 -767 30 -1070
66 -837 215 -1487 450 -1965 118 -240 214 -374 503 -705 484 -553 1077 -1055
1518 -1286 l84 -44 47 23 c431 202 1044 712 1543 1282 311 355 429 526 551
796 304 671 471 1792 444 2989 -6 312 -21 599 -30 608 -3 3 -44 -2 -93 -11
-172 -34 -360 -56 -543 -66 -540 -30 -1042 68 -1467 286 -131 67 -306 183
-389 257 -34 31 -63 56 -65 56 -1 -1 -31 -27 -65 -59z m156 -588 c180 -146
484 -285 761 -347 350 -78 778 -81 1155 -7 l90 17 9 -45 c14 -76 13 -1093 -2
-1276 -78 -955 -261 -1573 -587 -1979 -439 -548 -1047 -1105 -1457 -1336 l-58
-32 -57 32 c-140 79 -407 278 -628 469 -315 273 -780 773 -940 1011 -341 507
-523 1459 -501 2625 3 193 9 390 13 439 l6 88 36 -6 c20 -3 92 -14 160 -25
548 -88 1076 -25 1498 178 128 62 287 163 363 229 51 45 36 49 139 -35z"/>
<path d="M3167 5200 l-27 -21 0 -172 c0 -95 -3 -338 -7 -541 l-6 -368 -528 7
-527 7 -26 -25 -26 -26 0 -324 c0 -317 0 -324 21 -343 20 -18 46 -19 556 -22
l535 -3 -3 -534 c-4 -524 -4 -535 16 -554 19 -19 38 -20 347 -23 303 -3 328
-2 345 15 17 16 18 55 23 555 l5 537 531 -4 c526 -3 532 -3 552 17 12 12 24
36 27 54 3 18 5 167 3 331 l-3 299 -24 19 c-22 18 -46 19 -552 19 l-529 0 0
534 c0 511 -1 535 -19 557 l-19 24 -319 3 c-312 3 -320 3 -346 -18z"/>
</g>
</svg>
