<?xml version="1.0" encoding="utf-8"?>
<!-- Generator: Adobe Illustrator 23.0.6, SVG Export Plug-In . SVG Version: 6.00 Build 0)  -->
<svg version="1.1" id="Layer_1" xmlns="http://www.w3.org/2000/svg" x="0px" y="0px"
     viewBox="0 0 64 32" style="enable-background:new 0 0 64 32;" xml:space="preserve">
<style type="text/css">
	.st0{fill:#0078A5;}
</style>
<g>
	<path class="st0" d="M40.5,22.03c4.3-5.44,3.19-18.69,3.19-18.69c-7.44,1.6-11.21-1.83-11.72-2.33c0,0-0.01-0.05-0.03-0.03
		c-0.02-0.02-0.03,0.03-0.03,0.03c-0.51,0.51-4.28,3.93-11.72,2.34c0,0-1.14,13.27,3.2,18.68c4.63,5.78,8.54,7.53,8.56,7.51
		C31.97,29.56,35.91,27.84,40.5,22.03z M31.94,26.93c-0.02,0.01-3.23-1.68-7.04-6.35c-3.57-4.37-2.63-15.07-2.63-15.07
		c6.12,1.29,9.22-1.48,9.64-1.89c0,0,0.01-0.04,0.02-0.02c0.02-0.02,0.02,0.02,0.02,0.02c0.42,0.41,3.52,3.17,9.64,1.88
		c0,0,0.91,10.68-2.62,15.07C35.2,25.27,31.96,26.94,31.94,26.93z"/>
	<path class="st0" d="M38.41,12.51c-1.46,0-2.91-0.01-4.37-0.01c-0.14,0-0.27,0-0.41,0c0-1.06,0.01-2.12,0.01-3.18
		c0-0.53,0-1.06,0.01-1.6c0-0.18-0.15-0.33-0.33-0.33c-0.9,0-1.81-0.01-2.71-0.01c-0.18,0-0.33,0.15-0.33,0.33
		c0,1.46-0.01,2.91-0.01,4.37c0,0.14,0,0.27,0,0.41c-1.06,0-2.12-0.01-3.18-0.01c-0.53,0-1.06,0-1.6-0.01
		c-0.18,0-0.33,0.15-0.33,0.33c0,0.9-0.01,1.81-0.01,2.71c0,0.1,0.04,0.18,0.09,0.23c0.05,0.06,0.13,0.1,0.23,0.1
		c1.46,0,2.91,0.01,4.37,0.01c0.14,0,0.27,0,0.41,0c0,1.06-0.01,2.12-0.01,3.18c0,0.53,0,1.06-0.01,1.6c0,0.18,0.15,0.33,0.33,0.33
		c0.9,0,1.81,0.01,2.71,0.01c0.1,0,0.18-0.04,0.23-0.09c0.06-0.05,0.1-0.13,0.1-0.23c0-1.46,0.01-2.91,0.01-4.37
		c0-0.14,0-0.27,0-0.41c1.06,0,2.12,0.01,3.18,0.01c0.53,0,1.06,0,1.6,0.01c0.18,0,0.33-0.15,0.33-0.33c0-0.9,0.01-1.81,0.01-2.71
		C38.73,12.66,38.58,12.51,38.41,12.51z"/>
	
		<ellipse transform="matrix(0.9732 -0.2298 0.2298 0.9732 -0.7741 12.5904)" class="st0" cx="53.68" cy="9.62" rx="4.79" ry="4.79"/>
	<path class="st0" d="M49.41,16.45c-0.27-2.27-3.67-12.85-3.67-12.85c2.12,19.51-11.7,27.43-11.7,27.43
		c21-1.14,24.44-16.67,24.44-16.67S49.61,18.04,49.41,16.45z"/>
	
		<ellipse transform="matrix(0.7071 -0.7071 0.7071 0.7071 -3.7795 10.1148)" class="st0" cx="10.32" cy="9.62" rx="4.79" ry="4.79"/>
	<path class="st0" d="M29.96,31.02c0,0-13.77-6.24-11.61-27.43c0,0-3.49,10.58-3.77,12.85c-0.19,1.59-9.06-2.09-9.06-2.09
		S8.96,29.88,29.96,31.02z"/>
</g>
</svg>
